# xmcd CD database file
#
# Track frame offsets:
#	150
#	13862
#	31306
#	51463
#	75244
#	110926
#	137150
#	188006
#
# Disc length: 3278 seconds
#
# Revision: 1
# Processed by: cddbd v1.5.2PL0 Copyright (c) Steve Scherf et al.
# Submitted via: CDex 1.70beta2
#
DISCID=680ccc08
DTITLE=スキマスイッチ - TOUR 2010 “LAGRANGIAN POINT” [Disc 2]
DYEAR=2010
DGENRE=J-Pop
TTITLE0=病院にいく (Live)
TTITLE1=飲みに来ないか (Live)
TTITLE2=双星プロローグ (Live)
TTITLE3=デザイナーズマンション (Live)
TTITLE4=ゴールデンタイムラバー (Live)
TTITLE5=全力少年 (Live)
TTITLE6=SL9 (Live)
TTITLE7=虹のレシピ (Live)
EXTD=YEAR: 2010
EXTT0=
EXTT1=
EXTT2=
EXTT3=
EXTT4=
EXTT5=
EXTT6=
EXTT7=
PLAYORDER=
